<?xml version="1.0" encoding="utf-8"?>
<!-- Generator: Adobe Illustrator 22.1.0, SVG Export Plug-In . SVG Version: 6.00 Build 0)  -->
<svg version="1.1" id="icons" xmlns="http://www.w3.org/2000/svg" xmlns:xlink="http://www.w3.org/1999/xlink" x="0px" y="0px"
	 viewBox="0 0 96 96" style="enable-background:new 0 0 96 96;" xml:space="preserve">
<style type="text/css">
	.st0{fill:#F8F1E5;}
	.st1{fill:#6AD4D4;}
	.st2{fill:#218DBF;}
	.st3{fill:#9F44A2;}
	.st4{fill:#F7EADE;}
	.st5{fill:#FFAF87;}
	.st6{fill:#F3E1D0;}
	.st7{fill:none;stroke:#2B3444;stroke-width:2;stroke-linecap:round;stroke-linejoin:round;}
	.st8{fill:#6AD4D4;stroke:#2B3444;stroke-miterlimit:10;}
</style>
<circle class="st0" cx="47.5" cy="48.5" r="37.2"/>
<title>love-letter</title>
<g id="_Group_">
	<path class="st1" d="M59.8,43.7v5.2l-8.9,6.6L48,53.3l-2.9,2.1l-8.9-6.6v-19h23.5V43.7z M52.8,35.6c0-1.4-1.2-2.5-2.6-2.5
		c0,0,0,0,0,0c-0.9,0-1.8,0.5-2.2,1.3c-0.5-0.8-1.3-1.3-2.2-1.3c-1.4,0-2.6,1.1-2.6,2.5c0,0,0,0,0,0c0,3.3,3.4,4.7,4.8,6
		C49.5,40.3,52.8,38.9,52.8,35.6z"/>
	<circle class="st2" cx="29.4" cy="36.3" r="1.1"/>
	<circle class="st1" cx="65.1" cy="32.5" r="1.6"/>
	<path class="st3" d="M50.3,33.1c1.4,0,2.6,1.1,2.6,2.5c0,0,0,0,0,0c0,3.3-3.4,4.7-4.8,6c-1.4-1.3-4.8-2.7-4.8-6
		c0-1.4,1.2-2.5,2.6-2.5c0,0,0,0,0,0c0.9,0,1.8,0.5,2.2,1.3C48.5,33.6,49.3,33.1,50.3,33.1z"/>
	<polygon class="st4" points="66.7,43.7 59.8,43.7 59.8,38.6 	"/>
	<polygon class="st4" points="36.3,38.6 36.3,43.7 29.4,43.7 	"/>
	<polygon class="st5" points="66.7,67.2 29.4,67.2 45.2,55.5 48,53.3 50.9,55.5 	"/>
	<polygon class="st6" points="36.3,43.7 36.3,48.9 29.4,43.7 	"/>
	<polygon class="st6" points="66.7,43.7 59.8,48.9 59.8,43.7 	"/>
	<polygon class="st5" points="45.2,55.5 29.4,67.2 29.4,43.7 36.3,48.9 	"/>
	<polygon class="st5" points="66.7,43.7 66.7,67.2 50.9,55.5 59.8,48.9 	"/>
	<line class="st7" x1="66.7" y1="67.2" x2="66.7" y2="43.7"/>
	<line class="st7" x1="29.4" y1="43.7" x2="29.4" y2="67.2"/>
	<line class="st7" x1="59.8" y1="38.6" x2="66.7" y2="43.7"/>
	<line class="st7" x1="29.4" y1="43.7" x2="36.3" y2="38.6"/>
	<polyline class="st7" points="50.9,55.5 59.8,48.9 66.7,43.7 59.8,43.7 	"/>
	<polyline class="st7" points="36.3,43.7 29.4,43.7 36.3,48.9 45.2,55.5 	"/>
	<polygon class="st7" points="29.4,67.2 66.7,67.2 50.9,55.5 48,53.3 45.2,55.5 	"/>
	<line class="st7" x1="54.4" y1="44.8" x2="41.6" y2="44.8"/>
	<line class="st7" x1="52.3" y1="48" x2="41.6" y2="48"/>
	<polyline class="st7" points="36.3,48.9 36.3,43.7 36.3,38.6 36.3,29.9 59.8,29.9 59.8,38.6 59.8,43.7 59.8,48.9 	"/>
	<path class="st7" d="M50.3,33.1c-0.9,0-1.8,0.5-2.2,1.3c-0.5-0.8-1.3-1.3-2.2-1.3c-1.4,0-2.6,1.1-2.6,2.5c0,0,0,0,0,0
		c0,3.3,3.4,4.7,4.8,6c1.4-1.3,4.8-2.7,4.8-6C52.8,34.2,51.7,33.1,50.3,33.1C50.3,33.1,50.3,33.1,50.3,33.1z"/>
	<circle class="st8" cx="29.4" cy="36.3" r="1.1"/>
	<circle class="st7" cx="65.1" cy="32.5" r="1.6"/>
</g>
</svg>
