<?xml version="1.0" encoding="utf-8"?>
<!-- Generator: Adobe Illustrator 24.2.0, SVG Export Plug-In . SVG Version: 6.00 Build 0)  -->
<svg version="1.1" id="icons" xmlns="http://www.w3.org/2000/svg" xmlns:xlink="http://www.w3.org/1999/xlink" x="0px" y="0px"
	 viewBox="0 0 96 96" style="enable-background:new 0 0 96 96;" xml:space="preserve">
<style type="text/css">
	.st0{fill:#F99965;}
	.st1{fill:#218DBF;}
	.st2{fill:#FFFFFF;}
	.st3{fill:#E3997F;}
	.st4{fill:#F7EADE;}
	.st5{fill:#CEB6B6;}
	.st6{fill:#F3E1D0;}
	.st7{fill:none;stroke:#2B3444;stroke-width:2;stroke-linecap:round;stroke-linejoin:round;}
	.st8{fill:none;stroke:#2B3444;stroke-linecap:round;stroke-linejoin:round;}
</style>
<circle class="st0" cx="47.5" cy="48.5" r="37.2"/>
<g id="_Group_">
	<circle class="st1" cx="29.4" cy="36.3" r="1.1"/>
	<polygon class="st2" points="59.7,43.7 59.7,29.8 36.2,29.8 36.2,48.8 45.1,55.4 48,53.3 50.9,55.5 59.8,48.9 59.8,43.7 	"/>
	<circle class="st3" cx="65.1" cy="32.5" r="1.6"/>
	<polygon class="st4" points="66.7,43.7 59.8,43.7 59.8,38.6 	"/>
	<polygon class="st4" points="36.3,38.6 36.3,43.7 29.4,43.7 	"/>
	<polygon class="st5" points="66.7,67.2 29.4,67.2 45.2,55.5 48,53.3 50.9,55.5 	"/>
	<polygon class="st6" points="36.3,43.7 36.3,48.9 29.4,43.7 	"/>
	<polygon class="st6" points="66.7,43.7 59.8,48.9 59.8,43.7 	"/>
	<polygon class="st5" points="45.2,55.5 29.4,67.2 29.4,43.7 36.3,48.9 	"/>
	<polygon class="st5" points="66.7,43.7 66.7,67.2 50.9,55.5 59.8,48.9 	"/>
	<line class="st7" x1="66.7" y1="67.2" x2="66.7" y2="43.7"/>
	<line class="st7" x1="29.4" y1="43.7" x2="29.4" y2="67.2"/>
	<line class="st7" x1="59.8" y1="38.6" x2="66.7" y2="43.7"/>
	<line class="st7" x1="29.4" y1="43.7" x2="36.3" y2="38.6"/>
	<polyline class="st7" points="50.9,55.5 59.8,48.9 66.7,43.7 59.8,43.7 	"/>
	<polyline class="st7" points="36.3,43.7 29.4,43.7 36.3,48.9 45.2,55.5 	"/>
	<polygon class="st7" points="29.4,67.2 66.7,67.2 50.9,55.5 48,53.3 45.2,55.5 	"/>
	<line class="st7" x1="54.4" y1="43.8" x2="41.6" y2="43.8"/>
	<line class="st7" x1="52.3" y1="47" x2="41.6" y2="47"/>
	<line class="st7" x1="54.4" y1="36.3" x2="41.6" y2="36.3"/>
	<line class="st7" x1="52.3" y1="39.5" x2="41.6" y2="39.5"/>
	<polyline class="st7" points="36.3,48.9 36.3,43.7 36.3,38.6 36.3,29.9 59.8,29.9 59.8,38.6 59.8,43.7 59.8,48.9 	"/>
	<circle class="st3" cx="29.4" cy="36.3" r="1.1"/>
	<circle class="st7" cx="65.1" cy="32.5" r="1.6"/>
	<circle class="st8" cx="29.4" cy="36.3" r="1.6"/>
</g>
</svg>
